<?xml version="1.0" encoding="UTF-8" standalone="no"?>
<!DOCTYPE svg PUBLIC "-//W3C//DTD SVG 1.0//EN" "http://www.w3.org/TR/2001/PR-SVG-20010719/DTD/svg10.dtd">
<svg width="84cm" height="56cm" viewBox="155 -29 1668 1118" xmlns="http://www.w3.org/2000/svg" xmlns:xlink="http://www.w3.org/1999/xlink">
  <g>
    <path style="fill: none; fill-opacity:0; stroke-width: 0.02; stroke-dasharray: 1; stroke: #000000" d="M 252.516 5.84253 L 264.016,12.8425 L 252.516,19.8425 L 252.516,5.84253"/>
    <polygon style="fill: none; fill-opacity:0; stroke-width: 0.02; stroke-dasharray: 1; stroke: #000000" points="252.516,12.8425 264.016,19.8425 264.016,5.84253 "/>
    <path style="fill: none; fill-opacity:0; stroke-width: 0.02; stroke-dasharray: 1; stroke: #000000" d="M 252.516 5.84253 L 264.016,12.8425 L 252.516,19.8425 L 252.516,5.84253"/>
    <polygon style="fill: none; fill-opacity:0; stroke-width: 0.02; stroke-dasharray: 1; stroke: #000000" points="252.516,12.8425 264.016,19.8425 264.016,5.84253 "/>
    <ellipse style="fill: none; fill-opacity:0; stroke-width: 0.02; stroke-dasharray: 1; stroke: #000000" cx="257.516" cy="10.8425" rx="5" ry="5"/>
    <ellipse style="fill: none; fill-opacity:0; stroke-width: 0.02; stroke-dasharray: 1; stroke: #000000" cx="257.516" cy="10.8425" rx="5" ry="5"/>
    <ellipse style="fill: none; fill-opacity:0; stroke-width: 0.02; stroke-dasharray: 1; stroke: #000000" cx="257.516" cy="10.8425" rx="5" ry="5"/>
    <ellipse style="fill: none; fill-opacity:0; stroke-width: 0.02; stroke-dasharray: 1; stroke: #000000" cx="257.516" cy="10.8425" rx="5" ry="5"/>
    <path style="fill: none; fill-opacity:0; stroke-width: 2.5; stroke: #000000" d="M 253.516 6.84253 L 266.516,19.8425"/>
    <path style="fill: none; fill-opacity:0; stroke-width: 2.5; stroke: #000000" d="M 253.516 19.8425 L 266.516,6.84253"/>
    <path style="fill: none; fill-opacity:0; stroke-width: 2.5; stroke-dasharray: 1; stroke: #000000" d="M 253.516 6.84253 L 266.516,19.8425"/>
    <path style="fill: none; fill-opacity:0; stroke-width: 2.5; stroke-dasharray: 1; stroke: #000000" d="M 253.516 19.8425 L 266.516,6.84253"/>
    <path style="fill: none; fill-opacity:0; stroke-width: 2.5; stroke: #000000" d="M 253.516 6.84253 L 266.516,19.8425"/>
    <path style="fill: none; fill-opacity:0; stroke-width: 2.5; stroke: #000000" d="M 253.516 19.8425 L 266.516,6.84253"/>
    <path style="fill: none; fill-opacity:0; stroke-width: 2.5; stroke-dasharray: 1; stroke: #000000" d="M 253.516 6.84253 L 266.516,19.8425"/>
    <path style="fill: none; fill-opacity:0; stroke-width: 2.5; stroke-dasharray: 1; stroke: #000000" d="M 253.516 19.8425 L 266.516,6.84253"/>
    <g>
      <g>
        <rect style="fill: none; fill-opacity:0; stroke-width: 0.02; stroke: #000000" x="260.516" y="663.843" width="689.225" height="116"/>
        <rect style="fill: none; fill-opacity:0; stroke-width: 0.02; stroke: #000000" x="969.741" y="543.843" width="592.544" height="546"/>
        <rect style="fill: none; fill-opacity:0; stroke-width: 0.02; stroke: #000000" x="892.648" y="278.843" width="490.6" height="215"/>
        <rect style="fill: none; fill-opacity:0; stroke-width: 0.02; stroke: #000000" x="945.991" y="133.843" width="615.594" height="95"/>
        <rect style="fill: none; fill-opacity:0; stroke-width: 0.02; stroke: #000000" x="1581.59" y="13.8425" width="242.209" height="360"/>
      </g>
      <g>
        <path style="fill: none; fill-opacity:0; stroke-width: 0.02; stroke-dasharray: 0.02; stroke: #000000" d="M 1705.97 83.8425 L 1702.45,96.7821 L 1699.16,108.843 L 1699.16,121.343 L 1699.16,133.843 L 1699.16,154.843"/>
        <path style="fill: none; fill-opacity:0; stroke-width: 0.02; stroke-dasharray: 0.02; stroke: #000000" d="M 1699.16 203.843 L 1699.16,228.843 L 1699.16,253.843 L 1699.16,278.843 L 1699.16,299.843"/>
        <path style="fill: none; fill-opacity:0; stroke-width: 0.02; stroke-dasharray: 0.02; stroke: #000000" d="M 1715.44 83.8425 L 1717.32,96.4783 L 1719.16,108.843 L 1719.16,121.343 L 1719.16,126.469 L 1719.16,133.843 L 1711.81,134.434 L 1209.22,174.898"/>
        <path style="fill: none; fill-opacity:0; stroke-width: 0.02; stroke-dasharray: 0.02; stroke: #000000" d="M 1738.55 83.8425 L 1758.87,101.122 L 1767.95,108.843 L 1767.95,120.759 L 1767.95,126.207 L 1767.95,133.843 L 1760.39,134.929 L 1530.54,167.975"/>
        <path style="fill: none; fill-opacity:0; stroke-width: 0.02; stroke-dasharray: 0.02; stroke: #000000" d="M 1078.18 203.843 L 1029.9,225.146 L 1021.52,228.843 L 1021.52,237.999 L 1021.52,253.843 L 1021.52,278.843 L 1021.52,299.843"/>
        <path style="fill: none; fill-opacity:0; stroke-width: 0.02; stroke-dasharray: 0.02; stroke: #000000" d="M 1021.52 348.843 L 1021.52,373.843 L 1021.52,389.686 L 1021.52,398.843 L 1029.9,402.539 L 1094.53,431.057"/>
        <path style="fill: none; fill-opacity:0; stroke-width: 0.02; stroke-dasharray: 0.02; stroke: #000000" d="M 1189.64 203.843 L 1248.61,225.787 L 1256.82,228.843 L 1256.82,237.605 L 1256.82,253.843 L 1256.82,278.843 L 1256.82,299.843"/>
        <path style="fill: none; fill-opacity:0; stroke-width: 0.02; stroke-dasharray: 0.02; stroke: #000000" d="M 1256.82 348.843 L 1256.82,373.843 L 1256.82,390.08 L 1256.82,398.843 L 1248.61,401.898 L 1163.9,433.419"/>
        <path style="fill: none; fill-opacity:0; stroke-width: 0.02; stroke-dasharray: 0.02; stroke: #000000" d="M 1437.57 203.843 L 1437.57,228.843 L 1437.57,253.843 L 1437.57,278.843 L 1437.57,326.343 L 1437.57,373.843 L 1437.57,398.843 L 1437.57,446.343 L 1437.57,493.843 L 1437.57,518.843 L 1437.57,543.843 L 1437.57,564.843"/>
        <path style="fill: none; fill-opacity:0; stroke-width: 0.02; stroke-dasharray: 0.02; stroke: #000000" d="M 1437.57 613.843 L 1437.57,638.843 L 1437.57,663.843 L 1437.57,684.843"/>
        <path style="fill: none; fill-opacity:0; stroke-width: 0.02; stroke-dasharray: 0.02; stroke: #000000" d="M 1437.57 754.843 L 1437.57,779.843 L 1437.57,804.843 L 1437.57,852.343 L 1437.57,892.077 L 1437.57,899.843 L 1429.92,901.17 L 1236.62,934.694"/>
        <path style="fill: none; fill-opacity:0; stroke-width: 0.02; stroke-dasharray: 0.02; stroke: #000000" d="M 1163.69 924.843 L 1163.69,899.843 L 1163.69,852.343 L 1163.69,804.843 L 1163.69,779.843 L 1163.69,721.843 L 1163.69,663.843 L 1163.69,648.661 L 1163.69,638.843 L 1155.08,634.117 L 1116.04,612.681"/>
        <path style="fill: none; fill-opacity:0; stroke-width: 0.02; stroke-dasharray: 0.02; stroke: #000000" d="M 1163.69 969.843 L 1163.69,982.449 L 1163.69,994.843 L 1172.84,1003.2 L 1188.1,1017.14"/>
        <path style="fill: none; fill-opacity:0; stroke-width: 0.02; stroke-dasharray: 0.02; stroke: #000000" d="M 1081.43 874.843 L 1081.43,889.842 L 1081.43,899.843 L 1090.09,904.844 L 1121.26,922.842"/>
        <path style="fill: none; fill-opacity:0; stroke-width: 0.02; stroke-dasharray: 0.02; stroke: #000000" d="M 1047.69 613.843 L 1023.88,632.004 L 1014.92,638.843 L 1014.92,650.116 L 1014.92,656.424 L 1014.92,663.843 L 1007.53,664.522 L 477.1,713.309"/>
        <path style="fill: none; fill-opacity:0; stroke-width: 0.02; stroke-dasharray: 0.02; stroke: #000000" d="M 384.316 754.843 L 384.316,772.633 L 384.316,779.843 L 391.521,780.117 L 1027.75,804.364 L 1040.3,804.843 L 1048.52,814.335 L 1059.33,826.819"/>
        <path style="fill: none; fill-opacity:0; stroke-width: 0.02; stroke-dasharray: 0.02; stroke: #000000" d="M 619.654 754.843 L 619.654,772.568 L 619.654,779.843 L 626.918,780.244 L 1063.22,804.388 L 1071.43,804.843 L 1073.12,812.885 L 1075.87,825.928"/>
        <path style="fill: none; fill-opacity:0; stroke-width: 0.02; stroke-dasharray: 0.02; stroke: #000000" d="M 840.466 754.843 L 840.466,772.424 L 840.466,779.843 L 847.854,780.521 L 1106.75,804.309 L 1112.56,804.843 L 1109.36,809.722 L 1098.37,826.497"/>
        <path style="fill: none; fill-opacity:0; stroke-width: 0.02; stroke-dasharray: 0.02; stroke: #000000" d="M 1104.54 468.843 L 1086.33,485.484 L 1077.18,493.843 L 1077.18,506.236 L 1077.18,518.843 L 1077.18,543.843 L 1077.18,564.843"/>
        <path style="fill: none; fill-opacity:0; stroke-width: 0.02; stroke-dasharray: 0.02; stroke: #000000" d="M 1160.15 456.967 L 1259.54,491.052 L 1267.68,493.843 L 1267.68,502.445 L 1267.68,518.843 L 1267.68,543.843 L 1267.68,591.343 L 1267.68,638.843 L 1267.68,663.843 L 1267.68,721.843 L 1267.68,779.843 L 1267.68,804.843 L 1267.68,852.343 L 1267.68,899.843 L 1267.68,947.343 L 1267.68,982.449 L 1267.68,994.843 L 1258.53,1003.2 L 1243.27,1017.14"/>
      </g>
      <g>
        <rect style="fill: none; fill-opacity:0; stroke-width: 0.02; stroke: #000000" x="175.823" y="-16.6575" width="153.388" height="45"/>
        <rect style="fill: none; fill-opacity:0; stroke-width: 0.02; stroke: #000000" x="217.404" y="-16.6575" width="70.225" height="45"/>
        <rect style="fill: none; fill-opacity:0; stroke-width: 0.02; stroke: #000000" x="169.941" y="-16.6575" width="165.15" height="45"/>
        <rect style="fill: none; fill-opacity:0; stroke-width: 0.02; stroke: #000000" x="176.454" y="-16.6575" width="152.125" height="45"/>
        <rect style="fill: none; fill-opacity:0; stroke-width: 0.02; stroke: #000000" x="163.504" y="-16.6575" width="178.025" height="45"/>
        <rect style="fill: none; fill-opacity:0; stroke-width: 0.02; stroke: #000000" x="158.641" y="-16.6575" width="187.75" height="45"/>
        <rect style="fill: none; fill-opacity:0; stroke-width: 0.02; stroke: #000000" x="161.091" y="-16.6575" width="182.85" height="45"/>
        <rect style="fill: none; fill-opacity:0; stroke-width: 0.02; stroke: #000000" x="221.535" y="-16.6575" width="61.9625" height="45"/>
        <rect style="fill: none; fill-opacity:0; stroke-width: 0.02; stroke: #000000" x="211.454" y="-16.6575" width="82.125" height="45"/>
        <g>
          <rect style="fill: #e1f5fe" x="162.804" y="-27.1575" width="179.425" height="66"/>
          <rect style="fill: none; fill-opacity:0; stroke-width: 2; stroke: #01579b" x="162.804" y="-27.1575" width="179.425" height="66"/>
        </g>
        <rect style="fill: none; fill-opacity:0; stroke-width: 0.02; stroke: #000000" x="183.523" y="-16.6575" width="137.988" height="45"/>
        <g>
          <rect style="fill: #f3e5f5" x="217.16" y="-16.6575" width="70.7125" height="45"/>
          <rect style="fill: none; fill-opacity:0; stroke-width: 2; stroke: #4a148c" x="217.16" y="-16.6575" width="70.7125" height="45"/>
        </g>
        <g>
          <rect style="fill: #f3e5f5" x="214.216" y="-16.6575" width="76.6" height="45"/>
          <rect style="fill: none; fill-opacity:0; stroke-width: 2; stroke: #4a148c" x="214.216" y="-16.6575" width="76.6" height="45"/>
        </g>
        <g>
          <rect style="fill: #f3e5f5" x="205.26" y="-16.6575" width="94.5125" height="45"/>
          <rect style="fill: none; fill-opacity:0; stroke-width: 2; stroke: #4a148c" x="205.26" y="-16.6575" width="94.5125" height="45"/>
        </g>
        <g>
          <rect style="fill: #e1f5fe" x="163.716" y="-27.1575" width="177.6" height="66"/>
          <rect style="fill: none; fill-opacity:0; stroke-width: 2; stroke: #01579b" x="163.716" y="-27.1575" width="177.6" height="66"/>
        </g>
        <rect style="fill: none; fill-opacity:0; stroke-width: 0.02; stroke: #000000" x="155.979" y="-27.1575" width="193.075" height="66"/>
        <rect style="fill: none; fill-opacity:0; stroke-width: 0.02; stroke: #000000" x="178.241" y="-27.1575" width="148.55" height="66"/>
      </g>
    </g>
  </g>
  <g>
    <rect style="fill: #ffffff" x="1687.13" y="48.1628" width="66.2936" height="38.3019"/>
    <rect style="fill: none; fill-opacity:0; stroke-width: 2; stroke: #000000" x="1687.13" y="48.1628" width="66.2936" height="38.3019"/>
    <text font-size="12.7998" style="fill: #000000;text-anchor:middle;font-family:sans-serif;font-style:normal;font-weight:normal" x="1720.28" y="72.1138">
      <tspan x="1720.28" y="72.1138">asd</tspan>
    </text>
  </g>
</svg>
