<?xml version="1.0" encoding="UTF-8" standalone="no"?>
<!DOCTYPE svg PUBLIC "-//W3C//DTD SVG 1.1//EN"
 "http://www.w3.org/Graphics/SVG/1.1/DTD/svg11.dtd">
<!-- Generated by graphviz version 14.1.4 (20260321.0153)
 -->
<!-- Title: sigmf_io.c Pages: 1 -->
<svg width="294pt" height="140pt"
 viewBox="0.00 0.00 294.00 140.00" xmlns="http://www.w3.org/2000/svg" xmlns:xlink="http://www.w3.org/1999/xlink">

<svg id="main" version="1.1" xmlns="http://www.w3.org/2000/svg" xmlns:xlink="http://www.w3.org/1999/xlink" xml:space="preserve">

<style type="text/css"><![CDATA[
.node, .edge {opacity: 0.7;}
.node.selected, .edge.selected {opacity: 1;}
.edge:hover path { stroke: red; }
.edge:hover polygon { stroke: red; fill: red; }
]]></style>
<script type="application/ecmascript" xlink:href="svg.min.js"/>
<svg id="graph" class="graph">
<g id="graph0" class="graph" transform="scale(1 1) rotate(0) translate(4 136)">
<title>sigmf_io.c</title>
<!-- Node1 -->
<g id="Node000001" class="node">
<title>Node1</title>
<g id="a_Node000001"><a xlink:title="Utilidades de parseo SigMF y carga de IQ int8.">
<polygon fill="#999999" stroke="#666666" points="194.12,-132 133.12,-132 133.12,-112 194.12,-112 194.12,-132"/>
<text xml:space="preserve" text-anchor="middle" x="163.62" y="-118.5" font-family="Helvetica,sans-Serif" font-size="10.00">sigmf_io.c</text>
</a>
</g>
</g>
<!-- Node2 -->
<g id="Node000002" class="node">
<title>Node2</title>
<g id="a_Node000002"><a xlink:href="iq__bench_8h.html" target="_top" xlink:title="Interfaz publica del benchmark C para procesamiento IQ Metodo 3.">
<polygon fill="white" stroke="#666666" points="91.25,-76 28,-76 28,-56 91.25,-56 91.25,-76"/>
<text xml:space="preserve" text-anchor="middle" x="59.62" y="-62.5" font-family="Helvetica,sans-Serif" font-size="10.00">iq_bench.h</text>
</a>
</g>
</g>
<!-- Node1&#45;&gt;Node2 -->
<g id="edge1_Node000001_Node000002" class="edge">
<title>Node1&#45;&gt;Node2</title>
<g id="a_edge1_Node000001_Node000002"><a xlink:title=" ">
<path fill="none" stroke="#63b8ff" d="M145.51,-111.59C129.65,-103.36 106.34,-91.26 88.01,-81.74"/>
<polygon fill="#63b8ff" stroke="#63b8ff" points="89.71,-78.68 79.23,-77.18 86.49,-84.89 89.71,-78.68"/>
</a>
</g>
</g>
<!-- Node5 -->
<g id="Node000005" class="node">
<title>Node5</title>
<g id="a_Node000005"><a xlink:title=" ">
<polygon fill="#e0e0e0" stroke="#999999" points="154.25,-76 109,-76 109,-56 154.25,-56 154.25,-76"/>
<text xml:space="preserve" text-anchor="middle" x="131.62" y="-62.5" font-family="Helvetica,sans-Serif" font-size="10.00">stdio.h</text>
</a>
</g>
</g>
<!-- Node1&#45;&gt;Node5 -->
<g id="edge4_Node000001_Node000005" class="edge">
<title>Node1&#45;&gt;Node5</title>
<g id="a_edge4_Node000001_Node000005"><a xlink:title=" ">
<path fill="none" stroke="#63b8ff" d="M158.05,-111.59C153.88,-104.55 148.02,-94.67 142.88,-86"/>
<polygon fill="#63b8ff" stroke="#63b8ff" points="146.02,-84.42 137.91,-77.6 139.99,-87.99 146.02,-84.42"/>
</a>
</g>
</g>
<!-- Node6 -->
<g id="Node000006" class="node">
<title>Node6</title>
<g id="a_Node000006"><a xlink:title=" ">
<polygon fill="#e0e0e0" stroke="#999999" points="219.38,-76 171.88,-76 171.88,-56 219.38,-56 219.38,-76"/>
<text xml:space="preserve" text-anchor="middle" x="195.62" y="-62.5" font-family="Helvetica,sans-Serif" font-size="10.00">stdlib.h</text>
</a>
</g>
</g>
<!-- Node1&#45;&gt;Node6 -->
<g id="edge5_Node000001_Node000006" class="edge">
<title>Node1&#45;&gt;Node6</title>
<g id="a_edge5_Node000001_Node000006"><a xlink:title=" ">
<path fill="none" stroke="#63b8ff" d="M169.2,-111.59C173.37,-104.55 179.23,-94.67 184.37,-86"/>
<polygon fill="#63b8ff" stroke="#63b8ff" points="187.26,-87.99 189.34,-77.6 181.23,-84.42 187.26,-87.99"/>
</a>
</g>
</g>
<!-- Node7 -->
<g id="Node000007" class="node">
<title>Node7</title>
<g id="a_Node000007"><a xlink:title=" ">
<polygon fill="#e0e0e0" stroke="#999999" points="285.75,-76 237.5,-76 237.5,-56 285.75,-56 285.75,-76"/>
<text xml:space="preserve" text-anchor="middle" x="261.62" y="-62.5" font-family="Helvetica,sans-Serif" font-size="10.00">string.h</text>
</a>
</g>
</g>
<!-- Node1&#45;&gt;Node7 -->
<g id="edge6_Node000001_Node000007" class="edge">
<title>Node1&#45;&gt;Node7</title>
<g id="a_edge6_Node000001_Node000007"><a xlink:title=" ">
<path fill="none" stroke="#63b8ff" d="M180.7,-111.59C195.5,-103.44 217.19,-91.48 234.39,-82"/>
<polygon fill="#63b8ff" stroke="#63b8ff" points="236.03,-85.1 243.1,-77.21 232.65,-78.97 236.03,-85.1"/>
</a>
</g>
</g>
<!-- Node3 -->
<g id="Node000003" class="node">
<title>Node3</title>
<g id="a_Node000003"><a xlink:title=" ">
<polygon fill="#e0e0e0" stroke="#999999" points="51.25,-20 0,-20 0,0 51.25,0 51.25,-20"/>
<text xml:space="preserve" text-anchor="middle" x="25.62" y="-6.5" font-family="Helvetica,sans-Serif" font-size="10.00">stddef.h</text>
</a>
</g>
</g>
<!-- Node2&#45;&gt;Node3 -->
<g id="edge2_Node000002_Node000003" class="edge">
<title>Node2&#45;&gt;Node3</title>
<g id="a_edge2_Node000002_Node000003"><a xlink:title=" ">
<path fill="none" stroke="#63b8ff" d="M53.7,-55.59C49.27,-48.55 43.05,-38.67 37.59,-30"/>
<polygon fill="#63b8ff" stroke="#63b8ff" points="40.58,-28.18 32.29,-21.58 34.65,-31.91 40.58,-28.18"/>
</a>
</g>
</g>
<!-- Node4 -->
<g id="Node000004" class="node">
<title>Node4</title>
<g id="a_Node000004"><a xlink:title=" ">
<polygon fill="#e0e0e0" stroke="#999999" points="117.75,-20 69.5,-20 69.5,0 117.75,0 117.75,-20"/>
<text xml:space="preserve" text-anchor="middle" x="93.62" y="-6.5" font-family="Helvetica,sans-Serif" font-size="10.00">stdint.h</text>
</a>
</g>
</g>
<!-- Node2&#45;&gt;Node4 -->
<g id="edge3_Node000002_Node000004" class="edge">
<title>Node2&#45;&gt;Node4</title>
<g id="a_edge3_Node000002_Node000004"><a xlink:title=" ">
<path fill="none" stroke="#63b8ff" d="M65.55,-55.59C69.98,-48.55 76.2,-38.67 81.66,-30"/>
<polygon fill="#63b8ff" stroke="#63b8ff" points="84.6,-31.91 86.96,-21.58 78.67,-28.18 84.6,-31.91"/>
</a>
</g>
</g>
</g>
</svg>
</svg>

<style type='text/css'>
<![CDATA[
[data-mouse-over-selected='false'] { opacity: 0.7; }
[data-mouse-over-selected='true']  { opacity: 1.0; }
]]>
</style>
<script type="application/ecmascript"><![CDATA[
document.addEventListener('DOMContentLoaded', (event) => {
  highlightEdges();
  highlightAdjacentNodes();
});
]]></script>
</svg>
