<?xml version="1.0" encoding="UTF-8" standalone="no"?>
<!DOCTYPE svg PUBLIC "-//W3C//DTD SVG 1.1//EN"
 "http://www.w3.org/Graphics/SVG/1.1/DTD/svg11.dtd">
<!-- Generated by graphviz version 14.1.4 (20260321.0153)
 -->
<!-- Title: welch_workspace_init Pages: 1 -->
<svg width="357pt" height="104pt"
 viewBox="0.00 0.00 357.00 104.00" xmlns="http://www.w3.org/2000/svg" xmlns:xlink="http://www.w3.org/1999/xlink">
<g id="graph0" class="graph" transform="scale(1 1) rotate(0) translate(4 100)">
<title>welch_workspace_init</title>
<!-- Node1 -->
<g id="Node000001" class="node">
<title>Node1</title>
<g id="a_Node000001"><a xlink:title="Inicializa workspace Welch y buffers reutilizables.">
<polygon fill="#999999" stroke="#666666" points="112,-58 0,-58 0,-38 112,-38 112,-58"/>
<text xml:space="preserve" text-anchor="middle" x="56" y="-44.5" font-family="Helvetica,sans-Serif" font-size="10.00">welch_workspace_init</text>
</a>
</g>
</g>
<!-- Node2 -->
<g id="Node000002" class="node">
<title>Node2</title>
<g id="a_Node000002"><a xlink:href="welch_8c.html#aa421fdfbe907c9724b7b6501a9497da6" target="_top" xlink:title="Verifica si un valor es potencia de dos.">
<polygon fill="white" stroke="#666666" points="250.62,-96 161.12,-96 161.12,-76 250.62,-76 250.62,-96"/>
<text xml:space="preserve" text-anchor="middle" x="205.88" y="-82.5" font-family="Helvetica,sans-Serif" font-size="10.00">is_power_of_two</text>
</a>
</g>
</g>
<!-- Node1&#45;&gt;Node2 -->
<g id="edge1_Node000001_Node000002" class="edge">
<title>Node1&#45;&gt;Node2</title>
<g id="a_edge1_Node000001_Node000002"><a xlink:title=" ">
<path fill="none" stroke="#63b8ff" d="M97.8,-58.48C114.93,-62.89 135.06,-68.06 153.21,-72.72"/>
<polygon fill="#63b8ff" stroke="#63b8ff" points="152.19,-76.07 162.74,-75.17 153.93,-69.29 152.19,-76.07"/>
</a>
</g>
</g>
<!-- Node3 -->
<g id="Node000003" class="node">
<title>Node3</title>
<g id="a_Node000003"><a xlink:href="profiler_8c.html#a6c18b7213389f79f1d8e0fe3ff5d987d" target="_top" xlink:title="Reserva memoria y actualiza contadores del tracker.">
<polygon fill="white" stroke="#666666" points="232.25,-58 179.5,-58 179.5,-38 232.25,-38 232.25,-58"/>
<text xml:space="preserve" text-anchor="middle" x="205.88" y="-44.5" font-family="Helvetica,sans-Serif" font-size="10.00">mt_alloc</text>
</a>
</g>
</g>
<!-- Node1&#45;&gt;Node3 -->
<g id="edge2_Node000001_Node000003" class="edge">
<title>Node1&#45;&gt;Node3</title>
<g id="a_edge2_Node000001_Node000003"><a xlink:title=" ">
<path fill="none" stroke="#63b8ff" d="M112.48,-48C130.95,-48 151.05,-48 167.78,-48"/>
<polygon fill="#63b8ff" stroke="#63b8ff" points="167.78,-51.5 177.78,-48 167.78,-44.5 167.78,-51.5"/>
</a>
</g>
</g>
<!-- Node4 -->
<g id="Node000004" class="node">
<title>Node4</title>
<g id="a_Node000004"><a xlink:href="welch_8c.html#a1d1e5ec6e1712608f240e48f35a5f3f0" target="_top" xlink:title="Libera todos los buffers del workspace Welch.">
<polygon fill="white" stroke="#666666" points="263.75,-20 148,-20 148,0 263.75,0 263.75,-20"/>
<text xml:space="preserve" text-anchor="middle" x="205.88" y="-6.5" font-family="Helvetica,sans-Serif" font-size="10.00">welch_workspace_free</text>
</a>
</g>
</g>
<!-- Node1&#45;&gt;Node4 -->
<g id="edge3_Node000001_Node000004" class="edge">
<title>Node1&#45;&gt;Node4</title>
<g id="a_edge3_Node000001_Node000004"><a xlink:title=" ">
<path fill="none" stroke="#63b8ff" d="M97.8,-37.52C114.93,-33.11 135.06,-27.94 153.21,-23.28"/>
<polygon fill="#63b8ff" stroke="#63b8ff" points="153.93,-26.71 162.74,-20.83 152.19,-19.93 153.93,-26.71"/>
</a>
</g>
</g>
<!-- Node5 -->
<g id="Node000005" class="node">
<title>Node5</title>
<g id="a_Node000005"><a xlink:href="profiler_8c.html#afe41c4cf13f6d18756be82f64e7c23cb" target="_top" xlink:title="Libera memoria y actualiza contadores del tracker.">
<polygon fill="white" stroke="#666666" points="348.75,-20 299.75,-20 299.75,0 348.75,0 348.75,-20"/>
<text xml:space="preserve" text-anchor="middle" x="324.25" y="-6.5" font-family="Helvetica,sans-Serif" font-size="10.00">mt_free</text>
</a>
</g>
</g>
<!-- Node4&#45;&gt;Node5 -->
<g id="edge4_Node000004_Node000005" class="edge">
<title>Node4&#45;&gt;Node5</title>
<g id="a_edge4_Node000004_Node000005"><a xlink:title=" ">
<path fill="none" stroke="#63b8ff" d="M264.04,-10C272.26,-10 280.51,-10 288.13,-10"/>
<polygon fill="#63b8ff" stroke="#63b8ff" points="287.98,-13.5 297.98,-10 287.98,-6.5 287.98,-13.5"/>
</a>
</g>
</g>
</g>
</svg>
