<?xml version="1.0" encoding="UTF-8" standalone="no"?>
<!DOCTYPE svg PUBLIC "-//W3C//DTD SVG 1.1//EN"
 "http://www.w3.org/Graphics/SVG/1.1/DTD/svg11.dtd">
<!-- Generated by graphviz version 14.1.4 (20260321.0153)
 -->
<!-- Title: pair_cmp Pages: 1 -->
<svg width="281pt" height="28pt"
 viewBox="0.00 0.00 281.00 28.00" xmlns="http://www.w3.org/2000/svg" xmlns:xlink="http://www.w3.org/1999/xlink">
<g id="graph0" class="graph" transform="scale(1 1) rotate(0) translate(4 24)">
<title>pair_cmp</title>
<!-- Node1 -->
<g id="Node000001" class="node">
<title>Node1</title>
<g id="a_Node000001"><a xlink:title="Comparador para ordenar pares SigMF por ruta de data.">
<polygon fill="#999999" stroke="#666666" points="273,-20 217.25,-20 217.25,0 273,0 273,-20"/>
<text xml:space="preserve" text-anchor="middle" x="245.12" y="-6.5" font-family="Helvetica,sans-Serif" font-size="10.00">pair_cmp</text>
</a>
</g>
</g>
<!-- Node2 -->
<g id="Node000002" class="node">
<title>Node2</title>
<g id="a_Node000002"><a xlink:href="fs__utils_8c.html#a613a5ac98863c1ec1037529ea5448dbc" target="_top" xlink:title="Descubre pares SigMF data/meta dentro de un directorio.">
<polygon fill="white" stroke="#666666" points="181.25,-20 73,-20 73,0 181.25,0 181.25,-20"/>
<text xml:space="preserve" text-anchor="middle" x="127.12" y="-6.5" font-family="Helvetica,sans-Serif" font-size="10.00">discover_sigmf_pairs</text>
</a>
</g>
</g>
<!-- Node1&#45;&gt;Node2 -->
<g id="edge1_Node000001_Node000002" class="edge">
<title>Node1&#45;&gt;Node2</title>
<g id="a_edge1_Node000001_Node000002"><a xlink:title=" ">
<path fill="none" stroke="#63b8ff" d="M205.42,-10C197.78,-10 189.63,-10 181.6,-10"/>
<polygon fill="#63b8ff" stroke="#63b8ff" points="205.41,-13.5 215.41,-10 205.41,-6.5 205.41,-13.5"/>
</a>
</g>
</g>
<!-- Node3 -->
<g id="Node000003" class="node">
<title>Node3</title>
<g id="a_Node000003"><a xlink:href="main_8c.html#a3c04138a5bfe5d72780bb7e82a18e627" target="_top" xlink:title="Ejecuta el benchmark completo sobre el dataset IQ configurado.">
<polygon fill="white" stroke="#666666" points="37,-20 0,-20 0,0 37,0 37,-20"/>
<text xml:space="preserve" text-anchor="middle" x="18.5" y="-6.5" font-family="Helvetica,sans-Serif" font-size="10.00">main</text>
</a>
</g>
</g>
<!-- Node2&#45;&gt;Node3 -->
<g id="edge2_Node000002_Node000003" class="edge">
<title>Node2&#45;&gt;Node3</title>
<g id="a_edge2_Node000002_Node000003"><a xlink:title=" ">
<path fill="none" stroke="#63b8ff" d="M61.02,-10C52.42,-10 44.24,-10 37.46,-10"/>
<polygon fill="#63b8ff" stroke="#63b8ff" points="60.99,-13.5 70.99,-10 60.99,-6.5 60.99,-13.5"/>
</a>
</g>
</g>
</g>
</svg>
